<?xml version="1.0" encoding="iso-8859-1"?>
<!-- Generator: Adobe Illustrator 20.1.0, SVG Export Plug-In . SVG Version: 6.00 Build 0)  -->
<svg xmlns="http://www.w3.org/2000/svg" xmlns:xlink="http://www.w3.org/1999/xlink" version="1.1" id="&#1057;&#1083;&#1086;&#1081;_1" x="0px" y="0px" viewBox="0 0 64 64" style="enable-background:new 0 0 64 64;" xml:space="preserve">
<linearGradient id="SVGID_1__43977" gradientUnits="userSpaceOnUse" x1="32" y1="13" x2="32" y2="51.3945" spreadMethod="reflect">
	<stop offset="0" style="stop-color:#1A6DFF"/>
	<stop offset="1" style="stop-color:#C822FF"/>
</linearGradient>
<path style="fill:url(#SVGID_1__43977);" d="M59,40v-7c0-1.654-1.346-3-3-3h-5.304c-0.492,0-0.907-0.352-0.988-0.837l-1.443-8.656  c-0.055-0.333-0.169-0.643-0.321-0.926l-0.679-4.072C47.023,14.056,45.779,13,44.305,13H8c-1.654,0-3,1.346-3,3v5v1v18  c-1.103,0-2,0.897-2,2v2c0,1.103,0.897,2,2,2h1h6.09c0.478,2.833,2.942,5,5.91,5s5.431-2.167,5.91-5H40.09  c0.478,2.833,2.942,5,5.91,5s5.431-2.167,5.91-5H57h1.996H59v0c1.103-0.002,2-0.9,2-2.003v-1.992C61,40.901,60.103,40.002,59,40z   M8,15h36.305c0.491,0,0.906,0.352,0.987,0.837l0.366,2.194C45.541,18.018,45.426,18,45.306,18H8c-0.352,0-0.686,0.072-1,0.184V16  C7,15.448,7.448,15,8,15z M7,40h2v4H7V40z M18,49c-2.206,0-4-1.794-4-4s1.794-4,4-4s4,1.794,4,4S20.206,49,18,49z M46,49  c-2.206,0-4-1.794-4-4s1.794-4,4-4s4,1.794,4,4S48.206,49,46,49z M46,39c-2.967,0-5.431,2.167-5.91,5H23.91  c-0.478-2.833-2.942-5-5.91-5s-5.431,2.167-5.91,5H11v-4c0-1.103-0.897-2-2-2H7V22v-1c0-0.552,0.448-1,1-1h37.306  c0.491,0,0.906,0.352,0.986,0.835l1.443,8.656C47.977,30.944,49.222,32,50.696,32H56c0.552,0,1,0.448,1,1v5h-2c-1.103,0-2,0.897-2,2  v4h-1.09C51.431,41.167,48.967,39,46,39z M57,44h-2v-4h2V44z"/>
<linearGradient id="SVGID_2__43977" gradientUnits="userSpaceOnUse" x1="33" y1="13" x2="33" y2="51.3945" spreadMethod="reflect">
	<stop offset="0" style="stop-color:#1A6DFF"/>
	<stop offset="1" style="stop-color:#C822FF"/>
</linearGradient>
<path style="fill:url(#SVGID_2__43977);" d="M42.134,22H23c-1.103,0-2,0.897-2,2v6c0,1.103,0.897,2,2,2h20c1.103,0,2-0.897,2-2  l-0.888-6.284C43.973,22.737,43.122,22,42.134,22z M36,24v6h-6v-6H36z M22.998,24H28v6h-5L22.998,24z M38,30v-6h4.132l0.858,6H38z"/>
<linearGradient id="SVGID_3__43977" gradientUnits="userSpaceOnUse" x1="14" y1="13" x2="14" y2="51.3945" spreadMethod="reflect">
	<stop offset="0" style="stop-color:#1A6DFF"/>
	<stop offset="1" style="stop-color:#C822FF"/>
</linearGradient>
<path style="fill:url(#SVGID_3__43977);" d="M17,22h-6c-1.103,0-2,0.897-2,2v6c0,1.103,0.897,2,2,2h6c1.103,0,2-0.897,2-2v-6  C19,22.897,18.103,22,17,22z M17,24v2h-6v-2H17z M11,30v-2h6v2H11z"/>
<linearGradient id="SVGID_4__43977" gradientUnits="userSpaceOnUse" x1="38" y1="13" x2="38" y2="51.3945" spreadMethod="reflect">
	<stop offset="0" style="stop-color:#1A6DFF"/>
	<stop offset="1" style="stop-color:#C822FF"/>
</linearGradient>
<rect x="36" y="34" style="fill:url(#SVGID_4__43977);" width="4" height="2"/>
<linearGradient id="SVGID_5__43977" gradientUnits="userSpaceOnUse" x1="46" y1="42.5" x2="46" y2="47.5" spreadMethod="reflect">
	<stop offset="0" style="stop-color:#6DC7FF"/>
	<stop offset="1" style="stop-color:#E6ABFF"/>
</linearGradient>
<circle style="fill:url(#SVGID_5__43977);" cx="46" cy="45" r="2"/>
<linearGradient id="SVGID_6__43977" gradientUnits="userSpaceOnUse" x1="18" y1="42.5" x2="18" y2="47.5" spreadMethod="reflect">
	<stop offset="0" style="stop-color:#6DC7FF"/>
	<stop offset="1" style="stop-color:#E6ABFF"/>
</linearGradient>
<circle style="fill:url(#SVGID_6__43977);" cx="18" cy="45" r="2"/>
</svg>
